<?xml version="1.0" encoding="UTF-8"?>
<svg version="1.1" xmlns="http://www.w3.org/2000/svg" width="2025" height="333">
<path d="M0 0 C668.25 0 1336.5 0 2025 0 C2025 109.89 2025 219.78 2025 333 C1356.75 333 688.5 333 0 333 C0 223.11 0 113.22 0 0 Z " fill="#6ECF5F" transform="translate(0,0)"/>
<path d="M0 0 C53.79 0 107.58 0 163 0 C163.33 23.1 163.66 46.2 164 70 C182.33951942 70.28931074 182.33951942 70.28931074 200.67919922 70.56811523 C202.97103504 70.6062257 205.26286495 70.64469376 207.5546875 70.68359375 C208.75359619 70.70006958 209.95250488 70.71654541 211.18774414 70.73352051 C212.32445557 70.75370239 213.46116699 70.77388428 214.63232422 70.79467773 C215.62271698 70.81022202 216.61310974 70.8257663 217.6335144 70.84178162 C220 71 220 71 222 72 C222 139.65 222 207.3 222 277 C148.74 277 75.48 277 0 277 C-0.103125 256.99375 -0.20625 236.9875 -0.3125 216.375 C-0.35802002 210.06036621 -0.40354004 203.74573242 -0.45043945 197.23974609 C-0.47302246 189.52270508 -0.47302246 189.52270508 -0.47721863 185.90884399 C-0.48489145 183.38739613 -0.50246649 180.8659665 -0.52787781 178.34463501 C-0.56446651 174.52288999 -0.56953054 170.70226496 -0.56762695 166.88037109 C-0.58561749 165.75901953 -0.60360804 164.63766796 -0.62214375 163.48233604 C-0.56567253 155.01559579 -0.56567253 155.01559579 2.42414856 151.35366821 C14.37022851 140.43801205 31.71139516 138.51262797 47 135 C42.03375014 130.95342604 37.50787364 129.87618105 31.25 128.9375 C24.57536404 127.57476183 21.56343549 125.33759215 17.15625 120.2890625 C12.45566959 115.29895358 6.29636428 112.47711882 0 110 C-0.02465881 106.03069011 -0.04284023 102.06140966 -0.05493164 98.09204102 C-0.05997057 96.74079614 -0.06680177 95.38955674 -0.07543945 94.03833008 C-0.08752419 92.09979566 -0.09269828 90.161222 -0.09765625 88.22265625 C-0.10289307 87.05484619 -0.10812988 85.88703613 -0.11352539 84.68383789 C0 82 0 82 1 81 C2.74370809 80.89369068 4.49172519 80.8575745 6.23864746 80.84851074 C7.37448776 80.84016708 8.51032806 80.83182343 9.68058777 80.82322693 C11.56636284 80.8169503 11.56636284 80.8169503 13.49023438 80.81054688 C15.50913749 80.7978169 17.52804061 80.78508666 19.54694366 80.7723465 C21.72349535 80.75957697 23.90004664 80.7492673 26.07661438 80.73963928 C30.60527255 80.71947043 35.13386553 80.69181153 39.66247559 80.66296387 C50.09341232 80.5976746 60.52439745 80.54230254 70.95539093 80.48697662 C80.51266553 80.43618353 90.06991653 80.38333147 99.62713289 80.32245111 C104.13360401 80.29403152 108.64006726 80.27046095 113.14658356 80.25052643 C115.27243555 80.24038439 117.39825996 80.22799929 119.52409363 80.21458435 C122.12251208 80.1982003 124.72095652 80.18542179 127.31941223 80.17677307 C128.45525253 80.16842941 129.59109283 80.16008575 130.76135254 80.15148926 C132.25132626 80.14375866 132.25132626 80.14375866 133.77140045 80.13587189 C135.97213477 80.24878713 135.97213477 80.24878713 137 79 C137 60.85 137 42.7 137 24 C91.79 24 46.58 24 0 24 C0 16.08 0 8.16 0 0 Z " fill="#010100" transform="translate(544,27)"/>
<path d="M0 0 C7.18986347 1.09410966 12.93187814 6.8862409 17.38671875 12.32421875 C19.85028106 15.82234791 21.3947072 19.43832187 22.875 23.4375 C23.2978125 24.54867187 23.720625 25.65984375 24.15625 26.8046875 C27.79434169 36.64022608 30.25910562 45.48746509 30.1875 56 C30.18258545 56.8677002 30.1776709 57.73540039 30.17260742 58.62939453 C29.71336679 84.32331914 19.18351877 106.87403784 1.875 125.4375 C0.99972656 126.39398438 0.12445312 127.35046875 -0.77734375 128.3359375 C-18.69410898 147.12091602 -42.10518478 158.42498627 -67.125 164.4375 C-68.36121094 164.78425781 -69.59742188 165.13101563 -70.87109375 165.48828125 C-79.9191047 167.73838289 -92.24896074 168.24260064 -100.75390625 164.0859375 C-111.74814549 156.44249605 -118.00943732 147.0755553 -122.125 134.4375 C-122.7012915 134.74864746 -123.27758301 135.05979492 -123.87133789 135.38037109 C-134.91190293 141.31264749 -145.99722078 147.01095663 -157.5 152 C-158.43078369 152.40460449 -159.36156738 152.80920898 -160.32055664 153.22607422 C-178.09394321 160.80677437 -178.09394321 160.80677437 -187.125 159.4375 C-191.96331756 157.1079397 -194.7256196 154.23626079 -197.125 149.4375 C-198.38140615 141.34066037 -194.6891064 134.56571281 -191.125 127.4375 C-196.162986 129.08377852 -201.19825083 130.73804834 -206.23120117 132.3996582 C-207.94239683 132.96336713 -209.65430557 133.52491634 -211.36694336 134.08422852 C-213.8337938 134.89027172 -216.2979441 135.70414203 -218.76171875 136.51953125 C-219.90419319 136.89003349 -219.90419319 136.89003349 -221.06974792 137.26802063 C-226.82614825 139.18601599 -231.33442853 141.52260246 -235.7734375 145.734375 C-240.35947199 149.82758833 -245.3846154 152.73044144 -250.75 155.6875 C-251.66523437 156.203125 -252.58046875 156.71875 -253.5234375 157.25 C-267.96414797 165.34681454 -267.96414797 165.34681454 -275.125 164.4375 C-278.0625 162 -278.0625 162 -280.125 159.4375 C-280.455 159.1075 -280.785 158.7775 -281.125 158.4375 C-281.98226242 153.47839966 -281.6531892 149.49145684 -278.75 145.3125 C-271.34820017 136.59636188 -259.95542755 130.47858531 -249.1328125 127.1640625 C-248.45694092 126.95668457 -247.78106934 126.74930664 -247.0847168 126.53564453 C-245.15674555 125.96537657 -243.21718035 125.43475037 -241.27734375 124.90625 C-237.91043702 123.6753695 -237.91043702 123.6753695 -236.203125 120.4921875 C-235.06323819 117.2625082 -234.88227267 114.83568256 -235.125 111.4375 C-238.08436015 110.55711687 -239.68846675 110.28110958 -242.6328125 111.3359375 C-249.03657758 114.94880795 -254.85964204 118.86578563 -260.31933594 123.8046875 C-261.66871756 125.0248963 -263.03089347 126.23098333 -264.39941406 127.4296875 C-277.20929022 138.77202444 -284.77233925 148.93949702 -290.71777344 164.87744141 C-293.30735578 171.42867141 -296.34301105 177.78066207 -299.31988525 184.16293335 C-301.17422322 188.14427625 -303.00837335 192.13488963 -304.84375 196.125 C-305.204617 196.90872482 -305.56548401 197.69244965 -305.93728638 198.49992371 C-309.18739457 205.56217061 -312.41516472 212.63426243 -315.60800171 219.72259521 C-316.40758273 221.49614069 -317.21116075 223.2678825 -318.01489258 225.03955078 C-320.71191325 231.0449466 -323.15394239 237.04751564 -325.25463867 243.28857422 C-326.125 245.4375 -326.125 245.4375 -328.125 247.4375 C-331.65280763 247.4375 -332.90255287 246.65393504 -335.4375 244.1875 C-338.33816305 239.02727062 -338.21533932 233.126087 -337.125 227.4375 C-334.75772986 219.7211567 -331.19203017 212.40361621 -327.875 205.0625 C-326.92818864 202.92048054 -325.98397275 200.77731213 -325.04223633 198.63305664 C-323.08150009 194.17242669 -321.11045788 189.71655696 -319.13330078 185.26318359 C-314.69376182 175.22957015 -310.42206871 165.12454856 -306.14489746 155.02093506 C-304.02273848 150.0102873 -301.8916452 145.00344322 -299.76171875 139.99609375 C-298.54923419 137.14333319 -297.33710318 134.29042264 -296.125 131.4375 C-297.56227377 132.38712858 -298.99841582 133.33847017 -300.43408203 134.29052734 C-301.63389206 135.08491714 -301.63389206 135.08491714 -302.85794067 135.89535522 C-305.68543866 137.81873288 -308.33818393 139.91682555 -311 142.0625 C-334.96080345 160.97620129 -334.96080345 160.97620129 -346.57421875 160.92578125 C-350.36620579 160.19990318 -351.83613954 158.27542192 -354.06640625 155.26171875 C-357.83972697 148.75935427 -356.56291142 141.42515146 -354.74121094 134.47119141 C-350.99230512 121.3381386 -344.95000673 104.32083782 -333.125 96.4375 C-328.71857874 96.66941691 -326.27694698 98.45144496 -323.125 101.4375 C-321.2724886 103.92880843 -320.26891588 105.87622809 -319.5 108.875 C-320.24464421 111.92804127 -320.92555811 112.23650009 -323.36328125 114.07421875 C-327.43178204 117.45068162 -329.59907123 121.12730582 -331.9375 125.8125 C-332.31841797 126.52921875 -332.69933594 127.2459375 -333.09179688 127.984375 C-335.53551676 132.72630431 -337.01236286 137.22164547 -338.125 142.4375 C-323.54079508 135.95780627 -309.69309354 128.27912643 -295.96191406 120.15820312 C-291.33098089 117.4375 -291.33098089 117.4375 -289.125 117.4375 C-288.97804688 116.89222656 -288.83109375 116.34695312 -288.6796875 115.78515625 C-286.55781092 108.65126086 -283.46904445 101.66686297 -277.125 97.4375 C-271.43756346 97.4375 -268.51941299 99.27271677 -264.41015625 102.8671875 C-263.125 104.4375 -263.125 104.4375 -263.125 107.4375 C-262.36316406 106.83421875 -261.60132813 106.2309375 -260.81640625 105.609375 C-251.70844924 98.55952063 -245.1387254 94.15070232 -233.4375 94 C-232.71216064 93.98960693 -231.98682129 93.97921387 -231.23950195 93.96850586 C-226.50632449 94.04731063 -223.23702606 94.88584097 -219.125 97.4375 C-215.30420677 101.56808727 -213.98034816 104.67117021 -213.9375 110.25 C-213.92332031 111.08144531 -213.90914062 111.91289062 -213.89453125 112.76953125 C-214.16355838 115.88386227 -215.10102449 118.49391916 -216.125 121.4375 C-200.75873075 123.37211526 -200.75873075 123.37211526 -186.07666016 120.40478516 C-182.77769458 117.42283729 -181.10103203 113.34262743 -179.125 109.4375 C-172.66602405 102.2632325 -164.38513372 95.41155658 -154.375 94.875 C-149.99330808 95.17532686 -147.44924227 96.48261798 -144.125 99.4375 C-139.46389562 104.97392915 -136.70303506 108.7928536 -136.8671875 116.1328125 C-137.29486694 119.95600753 -138.49368902 121.62260918 -141.125 124.4375 C-146.92662103 128.88195611 -153.37848877 132.20531102 -159.9375 135.375 C-160.55923096 135.68171631 -161.18096191 135.98843262 -161.8215332 136.30444336 C-165.73419426 138.12427352 -168.81953896 138.94219225 -173.125 138.4375 C-175.5 136.4375 -175.5 136.4375 -177.125 134.4375 C-178.40822547 135.4970877 -178.40822547 135.4970877 -178.25 137.9375 C-178.40822547 140.3779123 -178.40822547 140.3779123 -177.125 141.4375 C-170.75306501 141.84115199 -165.46169571 140.7507899 -159.375 138.9375 C-158.47265625 138.67412842 -157.5703125 138.41075684 -156.640625 138.1394043 C-146.90795593 135.21031023 -137.39181505 131.61384699 -128.125 127.4375 C-127.135 126.99148437 -126.145 126.54546875 -125.125 126.0859375 C-122.86509352 124.54812977 -122.86509352 124.54812977 -122.375 121.64453125 C-122.2925 120.52433594 -122.21 119.40414062 -122.125 118.25 C-119.06168232 91.31488236 -104.56783709 68.54855582 -86.125 49.4375 C-85.35929687 48.60863281 -84.59359375 47.77976563 -83.8046875 46.92578125 C-72.82386812 35.36800356 -59.64933557 26.25396786 -45.83886719 18.41210938 C-43.18951779 16.90552778 -40.56583582 15.35536726 -37.9375 13.8125 C-36.98230469 13.25949219 -36.02710938 12.70648438 -35.04296875 12.13671875 C-32.99589238 10.94464617 -30.95751063 9.73757658 -28.92578125 8.51953125 C-27.87777344 7.89433594 -26.82976562 7.26914062 -25.75 6.625 C-24.34621094 5.78001953 -24.34621094 5.78001953 -22.9140625 4.91796875 C-15.42141228 0.94077767 -8.16035477 1.14244967 0 0 Z " fill="#010201" transform="translate(1371.125,50.5625)"/>
<path d="M0 0 C3.37183948 1.28623086 6.49788357 2.74026667 9.640625 4.51171875 C10.53273682 5.01405029 11.42484863 5.51638184 12.34399414 6.03393555 C13.30297607 6.57961182 14.26195801 7.12528809 15.25 7.6875 C16.26505615 8.26346924 17.2801123 8.83943848 18.32592773 9.43286133 C28.85382007 15.43785042 39.23510255 21.67968137 49.60595703 27.95068359 C55.09200355 31.26314759 60.58923132 34.55692973 66.08572388 37.85202026 C67.99301666 38.99581214 69.89979366 40.14045883 71.80639648 41.28540039 C77.30583716 44.58754611 82.80640137 47.88763449 88.31768799 51.16998291 C90.01572587 52.18141213 91.71294695 53.19421226 93.41015625 54.20703125 C95.46594584 55.43351083 97.52310758 56.65769525 99.58203125 57.87890625 C130.09825428 76.10445739 150.30831902 99.69154127 159.4375 134.5625 C159.97042811 136.70536156 160.4961687 138.85011115 161 141 C165.77801989 137.54296208 170.32727949 133.89277306 174.8125 130.0625 C187.03185579 119.74487678 199.52247377 111.89752537 216 113 C226.04633547 114.00628319 233.5008183 117.96549847 240.0625 125.625 C244.66433471 130.53966068 249.37415157 131.58531204 255.79711914 132.68408203 C260.96519198 133.5793012 264.56118513 135.17477006 269 138 C268 140 268 140 266.16503906 140.62255859 C265.37323242 140.79609863 264.58142578 140.96963867 263.765625 141.1484375 C262.88753174 141.34679199 262.00943848 141.54514648 261.10473633 141.74951172 C260.16267334 141.95592285 259.22061035 142.16233398 258.25 142.375 C256.32100636 142.82028999 254.3926164 143.26820339 252.46484375 143.71875 C251.05501221 144.04746094 251.05501221 144.04746094 249.61669922 144.3828125 C234.49571729 147.94932139 225.26859012 153.3722055 216 166 C214.35963525 168.17114945 212.71585965 170.33881371 211.0625 172.5 C210.6396875 173.05292725 210.216875 173.60585449 209.78125 174.17553711 C205.78045556 179.36387623 201.49922407 184.23657279 197 189 C196.24332031 189.82113281 195.48664063 190.64226562 194.70703125 191.48828125 C174.36539048 212.82543462 145.32447275 224.75816698 116 226 C112.74204782 225.98792578 109.48717965 225.90317916 106.23046875 225.81640625 C104.41602189 225.77640752 102.6015686 225.73669944 100.78710938 225.69726562 C97.98866382 225.63585006 95.19317613 225.56272589 92.39624023 225.45141602 C79.00554194 224.94096859 71.09951504 226.33828287 60 234 C59.34 234 58.68 234 58 234 C57.29773859 232.75823305 56.61370891 231.50614401 55.9375 230.25 C55.55464844 229.55390625 55.17179687 228.8578125 54.77734375 228.140625 C53.83414829 225.54328272 53.95332303 224.53617881 55 222 C56.34765625 220.140625 56.34765625 220.140625 58.0625 218.25 C58.69285156 217.55390625 59.32320313 216.8578125 59.97265625 216.140625 C62.60472498 213.361485 65.31842455 210.67245302 68.04296875 207.984375 C70.48939949 205.50376259 72.75522941 202.89739863 75.02734375 200.2578125 C77.89589984 196.97459385 80.85345563 193.77420287 83.80957031 190.57006836 C86.77197546 187.35505895 89.67664372 184.09675768 92.5625 180.8125 C104.75041466 167.29221474 104.75041466 167.29221474 113 165 C102.21544783 149.17208373 88.77980762 136.41891156 73.93359375 124.39453125 C64.73401556 116.88542149 55.85780448 109.06308743 47.23730469 100.89575195 C44.3045634 98.12165785 41.34459091 95.41577411 38.26171875 92.80859375 C35.90599446 90.80808469 33.74888519 88.80431186 31.75 86.4375 C31.17636719 85.75945312 30.60273438 85.08140625 30.01171875 84.3828125 C29.34785156 83.59648438 28.68398438 82.81015625 28 82 C26.71029297 80.54207031 26.71029297 80.54207031 25.39453125 79.0546875 C19.0199927 71.80028932 13.73911205 64.45033451 9 56 C8.51789063 55.14792969 8.03578125 54.29585937 7.5390625 53.41796875 C-1.18885249 37.04651609 -3.13698199 19.17513974 -1 1 C-0.67 0.67 -0.34 0.34 0 0 Z " fill="#FEFEFE" transform="translate(323,23)"/>
<path d="M0 0 C21.65301465 -0.20838734 43.30578759 -0.36897391 64.95960331 -0.46630955 C75.01402495 -0.51270677 85.06781192 -0.57595506 95.12182617 -0.67895508 C103.8855141 -0.76869329 112.64874241 -0.82673152 121.41287702 -0.84679645 C126.05322035 -0.85852497 130.69224886 -0.88606125 135.33217049 -0.95157051 C139.70167056 -1.01276073 144.06931733 -1.03148569 148.43920517 -1.01796913 C150.04086197 -1.02044087 151.64258207 -1.03828957 153.24386787 -1.07284927 C165.22890944 -1.31878147 165.22890944 -1.31878147 169.54699516 1.89653206 C172.88882888 5.90990848 174.37369207 8.71425312 174 14 C174.5775 14.20625 175.155 14.4125 175.75 14.625 C178.86693015 16.52979065 180.18297857 18.86720443 182 22 C182.165 22.7425 182.33 23.485 182.5 24.25 C182.665 24.8275 182.83 25.405 183 26 C184.32338632 26.68620031 185.65949948 27.34786461 187 28 C190.81769032 31.26802286 193.46517244 34.66966959 196 39 C197.56177791 40.82005642 199.15986229 42.59527769 200.79296875 44.3515625 C202 46 202 46 202 49 C202.59296875 49.2578125 203.1859375 49.515625 203.796875 49.78125 C206.17660965 51.09769895 207.50978792 52.42580782 209.25 54.5 C210.03117187 55.41265625 210.03117187 55.41265625 210.828125 56.34375 C212 58 212 58 212 60 C212.99 60.33 213.98 60.66 215 61 C216.39453125 62.6015625 216.39453125 62.6015625 217.8125 64.625 C219.26947272 66.69006498 220.66889959 68.67009864 222.46222842 70.45693308 C226.22014799 74.30786345 227.68774067 76.98475892 227.77448463 82.37444401 C227.74827065 83.563328 227.74827065 83.563328 227.7215271 84.77622986 C227.72923126 86.06230385 227.72923126 86.06230385 227.73709106 87.37435913 C227.74698812 90.24375284 227.71394649 93.11102444 227.68115234 95.98022461 C227.67931359 98.07364873 227.68011656 100.16707656 227.68334389 102.260499 C227.68469705 107.86066218 227.64995341 113.46005429 227.60768127 119.06003571 C227.57348078 124.31710712 227.57190097 129.57399215 227.56762695 134.83117676 C227.53615804 150.20005308 227.4523909 165.56878631 227.375 180.9375 C227.25125 215.278125 227.1275 249.61875 227 285 C152.09 285 77.18 285 0 285 C-0.04125 265.1175 -0.0825 245.235 -0.125 224.75 C-0.14320801 218.46936523 -0.16141602 212.18873047 -0.18017578 205.71777344 C-0.18920898 198.05517578 -0.18920898 198.05517578 -0.19088745 194.46929932 C-0.19396094 191.96196788 -0.20099982 189.45463943 -0.21115112 186.94732666 C-0.22575054 183.15200657 -0.22781332 179.35686732 -0.22705078 175.56152344 C-0.234247 174.44234402 -0.24144321 173.3231646 -0.2488575 172.17007065 C-0.24472501 170.63783545 -0.24472501 170.63783545 -0.24050903 169.074646 C-0.24235262 168.18603756 -0.24419621 167.29742912 -0.24609566 166.38189316 C0.01735192 163.83205544 0.71367263 162.19771184 2 160 C2.33 160 2.66 160 3 160 C3 199.93 3 239.86 3 281 C76.26 281 149.52 281 225 281 C225 213.35 225 145.7 225 76 C205.86 75.67 186.72 75.34 167 75 C166.67 74.67 166.34 74.34 166 74 C166 50.9 166 27.8 166 4 C112.21 4 58.42 4 3 4 C3 11.92 3 19.84 3 28 C48.21 28 93.42 28 140 28 C141.25684394 30.51368789 141.13374676 32.2474374 141.14526367 35.06054688 C141.15164352 36.11504028 141.15802338 37.16953369 141.16459656 38.25598145 C141.16626579 39.97005188 141.16626579 39.97005188 141.16796875 41.71875 C141.17129715 42.88756714 141.17462555 44.05638428 141.17805481 45.26062012 C141.18312445 47.73542893 141.18546312 50.21024459 141.18530273 52.68505859 C141.18749088 56.48416309 141.20565104 60.28297812 141.22460938 64.08203125 C141.22754287 66.48176984 141.22952796 68.88150981 141.23046875 71.28125 C141.23765427 72.42396362 141.24483978 73.56667725 141.25224304 74.74401855 C141.24916641 75.79851196 141.24608978 76.85300537 141.24291992 77.93945312 C141.24434494 78.8705188 141.24576996 79.80158447 141.24723816 80.76086426 C141 83 141 83 139 85 C136.64555931 85.26171303 136.64555931 85.26171303 133.6343689 85.2784729 C131.92637871 85.29521812 131.92637871 85.29521812 130.18388367 85.31230164 C128.92872452 85.31446182 127.67356537 85.31662201 126.38037109 85.31884766 C124.40483498 85.33391609 124.40483498 85.33391609 122.38938904 85.34928894 C118.7718667 85.37665637 115.15438344 85.39175819 111.53678465 85.40471697 C107.75841492 85.42031814 103.98012536 85.44711789 100.20181274 85.4727478 C93.04434243 85.51958914 85.88685713 85.55630725 78.72931159 85.58942068 C70.58184963 85.62760433 62.43446809 85.67702426 54.28707385 85.72740483 C37.52476806 85.83080432 20.76242902 85.91855506 4 86 C3.67 95.24 3.34 104.48 3 114 C2.01 114 1.02 114 0 114 C0 103.77 0 93.54 0 83 C-8.25 83 -16.5 83 -25 83 C-25.09172829 75.50630854 -25.17140126 68.01455714 -25.21972656 60.52075195 C-25.23986697 57.97055468 -25.26718097 55.42040372 -25.30175781 52.87036133 C-25.35016739 49.20903103 -25.37294474 45.54831018 -25.390625 41.88671875 C-25.41127014 40.7428923 -25.43191528 39.59906586 -25.45318604 38.420578 C-25.45348816 37.35970474 -25.45379028 36.29883148 -25.45410156 35.20581055 C-25.46298401 34.27093307 -25.47186646 33.3360556 -25.48101807 32.37284851 C-25 30 -25 30 -23.11474609 28.19592285 C-20.60772934 26.77816465 -19.09896767 26.65194293 -16.234375 26.70703125 C-15.43225586 26.71452393 -14.63013672 26.7220166 -13.80371094 26.72973633 C-12.79598633 26.75704834 -11.78826172 26.78436035 -10.75 26.8125 C-7.5325 26.874375 -4.315 26.93625 -1 27 C-0.67 18.09 -0.34 9.18 0 0 Z " fill="#FECD00" transform="translate(541,23)"/>
<path d="M0 0 C6.09004982 1.92963117 10.68560388 5.51574743 14 11 C14.875 14.125 14.875 14.125 14 17 C12.25001249 18.49736464 10.45357794 19.5593848 8.43188477 20.66162109 C0.836514 24.84170568 -4.65113309 29.26490941 -9.8125 36.25 C-10.39999023 37.0248877 -10.98748047 37.79977539 -11.59277344 38.59814453 C-22.24310068 52.7013912 -22.24310068 52.7013912 -31 68 C-30.4423999 67.93941406 -29.8847998 67.87882812 -29.31030273 67.81640625 C-17.82822149 66.58976377 -6.55241965 65.68057826 5 66 C3.98489897 70.61675756 2.13158887 73.38664145 -1.703125 76.2890625 C-12.27326643 82.86514285 -29.60354511 86.67007864 -42 86 C-42.33451172 87.15628906 -42.33451172 87.15628906 -42.67578125 88.3359375 C-44.46848561 93.29628172 -46.84579492 97.90402847 -49.1875 102.625 C-56.25179336 117.09720198 -62.39459713 131.92845032 -68.473526 146.83564758 C-70.15478786 150.95600302 -71.86838658 155.05943182 -73.625 159.1484375 C-77.21693846 167.60654298 -79.9434854 175.55069811 -81.07910156 184.71362305 C-81.43399792 187.48873442 -81.72565128 189.60058055 -83.328125 191.93359375 C-86.33480546 193.85140629 -89.63081114 193.72828931 -93 193 C-97.31521808 189.02545703 -99.07639222 184.51796488 -99.4375 178.75 C-98.51487551 149.81314106 -78.00148396 116.8501202 -66 91 C-66.78375 90.71125 -67.5675 90.4225 -68.375 90.125 C-71 89 -71 89 -73 87 C-80.25510087 86.87178025 -87.45070127 88.18800464 -94.54296875 89.58984375 C-97.75947769 90.12678085 -100.74818381 90.14452516 -104 90 C-104.27207275 90.86310791 -104.54414551 91.72621582 -104.82446289 92.61547852 C-105.97178459 95.91876422 -107.31535949 98.99183804 -108.80859375 102.15234375 C-109.38874263 103.39334229 -109.96804325 104.63473763 -110.54663086 105.87646484 C-110.85406219 106.53523621 -111.16149353 107.19400757 -111.47824097 107.8727417 C-118.04772304 122.01323158 -124.21678183 136.32107444 -130.14553833 150.74124146 C-131.00179374 152.81815889 -131.86473964 154.89233153 -132.73458862 156.96359253 C-133.96638027 159.90297886 -135.17183863 162.85190167 -136.37109375 165.8046875 C-136.73912109 166.6713353 -137.10714844 167.53798309 -137.48632812 168.43089294 C-141.01797641 177.29729192 -140.40140541 185.71568913 -139 195 C-141.61339165 197.72701737 -143.78492642 198.28530943 -147.4375 198.4375 C-150.67498352 198.31523051 -151.97473767 198.01427871 -154.875 196.375 C-159.8932088 190.76641369 -160.72450507 185.48282864 -160.51953125 178.1796875 C-157.81272653 150.06384491 -139.00962612 119.2876446 -127 94 C-127.95132812 93.87496094 -128.90265625 93.74992187 -129.8828125 93.62109375 C-133 93 -133 93 -134.875 91.0625 C-136.43928697 86.80416324 -136.96226483 82.47036415 -136 78 C-133.56602656 75.17166124 -132.07447215 75.00594193 -128.328125 74.70703125 C-126.96843965 74.72683249 -125.6089066 74.76240798 -124.25 74.8125 C-123.55261719 74.82603516 -122.85523438 74.83957031 -122.13671875 74.85351562 C-120.42414459 74.8887055 -118.71197059 74.94250845 -117 75 C-116.72542969 74.12327637 -116.45085937 73.24655273 -116.16796875 72.34326172 C-109.72657549 53.90504281 -98.1340085 35.72915373 -86.25 20.25 C-85.81413574 19.67677002 -85.37827148 19.10354004 -84.92919922 18.51293945 C-81.61887371 14.34524089 -78.04543049 10.71164699 -72.7265625 9.46875 C-66.08129596 9.56756437 -61.19542449 11.18611873 -56.16796875 15.61328125 C-53.50805619 18.42269709 -52.14517028 20.38302629 -51.25 24.1875 C-52.11945107 27.44794152 -53.22671614 28.36047274 -56.1015625 30.02734375 C-57.42103078 30.70336762 -58.75003355 31.3609712 -60.0859375 32.00390625 C-75.55823948 39.79434602 -84.35619118 57.6093537 -93 72 C-89.93722733 71.85873374 -86.87486458 71.71215604 -83.8125 71.5625 C-82.94818359 71.52318359 -82.08386719 71.48386719 -81.19335938 71.44335938 C-76.2400602 71.20135398 -76.2400602 71.20135398 -71.34375 70.46875 C-68.10531185 69.82106237 -64.98524466 69.90667996 -61.6875 69.9375 C-60.43324219 69.94652344 -59.17898438 69.95554687 -57.88671875 69.96484375 C-56.93410156 69.97644531 -55.98148438 69.98804688 -55 70 C-54.77054688 69.20980469 -54.54109375 68.41960937 -54.3046875 67.60546875 C-48.31140913 51.04320548 -22.17895172 -5.24875548 0 0 Z " fill="#010201" transform="translate(1517,114)"/>
<path d="M0 0 C0.72533936 -0.01039307 1.45067871 -0.02078613 2.19799805 -0.03149414 C6.93117551 0.04731063 10.20047394 0.88584097 14.3125 3.4375 C18.13329323 7.56808727 19.45715184 10.67117021 19.5 16.25 C19.51417969 17.08144531 19.52835938 17.91289062 19.54296875 18.76953125 C19.27394162 21.88386227 18.33647551 24.49391916 17.3125 27.4375 C32.67876925 29.37211526 32.67876925 29.37211526 47.36083984 26.40478516 C50.65980542 23.42283729 52.33646797 19.34262743 54.3125 15.4375 C60.77147595 8.2632325 69.05236628 1.41155658 79.0625 0.875 C83.44419192 1.17532686 85.98825773 2.48261798 89.3125 5.4375 C93.97360438 10.97392915 96.73446494 14.7928536 96.5703125 22.1328125 C96.14263306 25.95600753 94.94381098 27.62260918 92.3125 30.4375 C86.51087897 34.88195611 80.05901123 38.20531102 73.5 41.375 C72.87826904 41.68171631 72.25653809 41.98843262 71.6159668 42.30444336 C67.70330574 44.12427352 64.61796104 44.94219225 60.3125 44.4375 C57.9375 42.4375 57.9375 42.4375 56.3125 40.4375 C55.02927453 41.4970877 55.02927453 41.4970877 55.1875 43.9375 C55.02927453 46.3779123 55.02927453 46.3779123 56.3125 47.4375 C62.6844999 47.8411561 67.97572583 46.75064261 74.0625 44.9375 C75.41710327 44.54244263 75.41710327 44.54244263 76.79907227 44.1394043 C88.63143933 40.5805584 100.33364975 36.12958448 111.3125 30.4375 C111.3125 33.7375 111.3125 37.0375 111.3125 40.4375 C99.69382542 46.69288261 88.04898896 52.74694398 75.9375 58 C75.00671631 58.40460449 74.07593262 58.80920898 73.11694336 59.22607422 C55.34355679 66.80677437 55.34355679 66.80677437 46.3125 65.4375 C41.47418244 63.1079397 38.7118804 60.23626079 36.3125 55.4375 C35.05609385 47.34066037 38.7483936 40.56571281 42.3125 33.4375 C37.274514 35.08377852 32.23924917 36.73804834 27.20629883 38.3996582 C25.49510317 38.96336713 23.78319443 39.52491634 22.07055664 40.08422852 C19.6037062 40.89027172 17.1395559 41.70414203 14.67578125 42.51953125 C13.53330681 42.89003349 13.53330681 42.89003349 12.36775208 43.26802063 C6.61135175 45.18601599 2.10307147 47.52260246 -2.3359375 51.734375 C-6.92197199 55.82758833 -11.9471154 58.73044144 -17.3125 61.6875 C-18.22773437 62.203125 -19.14296875 62.71875 -20.0859375 63.25 C-34.52664797 71.34681454 -34.52664797 71.34681454 -41.6875 70.4375 C-44.625 68 -44.625 68 -46.6875 65.4375 C-47.0175 65.1075 -47.3475 64.7775 -47.6875 64.4375 C-48.54476242 59.47839966 -48.2156892 55.49145684 -45.3125 51.3125 C-37.91070017 42.59636188 -26.51792755 36.47858531 -15.6953125 33.1640625 C-15.01944092 32.95668457 -14.34356934 32.74930664 -13.6472168 32.53564453 C-11.71924555 31.96537657 -9.77968035 31.43475037 -7.83984375 30.90625 C-4.47293702 29.6753695 -4.47293702 29.6753695 -2.765625 26.4921875 C-1.62573819 23.2625082 -1.44477267 20.83568256 -1.6875 17.4375 C-4.64686015 16.55711687 -6.25096675 16.28110958 -9.1953125 17.3359375 C-15.59907758 20.94880795 -21.42214204 24.86578563 -26.88183594 29.8046875 C-28.23121756 31.0248963 -29.59339347 32.23098333 -30.96191406 33.4296875 C-43.77179022 44.77202444 -51.33483925 54.93949702 -57.28027344 70.87744141 C-59.86985578 77.42867141 -62.90551105 83.78066207 -65.88238525 90.16293335 C-67.73672322 94.14427625 -69.57087335 98.13488963 -71.40625 102.125 C-71.767117 102.90872482 -72.12798401 103.69244965 -72.49978638 104.49992371 C-75.74989457 111.56217061 -78.97766472 118.63426243 -82.17050171 125.72259521 C-82.97008273 127.49614069 -83.77366075 129.2678825 -84.57739258 131.03955078 C-87.27441325 137.0449466 -89.71644239 143.04751564 -91.81713867 149.28857422 C-92.6875 151.4375 -92.6875 151.4375 -94.6875 153.4375 C-98.21530763 153.4375 -99.46505287 152.65393504 -102 150.1875 C-104.90066305 145.02727062 -104.77783932 139.126087 -103.6875 133.4375 C-101.32022986 125.7211567 -97.75453017 118.40361621 -94.4375 111.0625 C-93.49068864 108.92048054 -92.54647275 106.77731213 -91.60473633 104.63305664 C-89.64400009 100.17242669 -87.67295788 95.71655696 -85.69580078 91.26318359 C-81.25626182 81.22957015 -76.98456871 71.12454856 -72.70739746 61.02093506 C-70.58523848 56.0102873 -68.4541452 51.00344322 -66.32421875 45.99609375 C-65.11173419 43.14333319 -63.89960318 40.29042264 -62.6875 37.4375 C-64.12477377 38.38712858 -65.56091582 39.33847017 -66.99658203 40.29052734 C-68.19639206 41.08491714 -68.19639206 41.08491714 -69.42044067 41.89535522 C-72.24793866 43.81873288 -74.90068393 45.91682555 -77.5625 48.0625 C-101.52330345 66.97620129 -101.52330345 66.97620129 -113.13671875 66.92578125 C-116.92870579 66.19990318 -118.39863954 64.27542192 -120.62890625 61.26171875 C-124.40222697 54.75935427 -123.12541142 47.42515146 -121.30371094 40.47119141 C-117.55480512 27.3381386 -111.51250673 10.32083782 -99.6875 2.4375 C-95.28107874 2.66941691 -92.83944698 4.45144496 -89.6875 7.4375 C-87.8349886 9.92880843 -86.83141588 11.87622809 -86.0625 14.875 C-86.80714421 17.92804127 -87.48805811 18.23650009 -89.92578125 20.07421875 C-93.99428204 23.45068162 -96.16157123 27.12730582 -98.5 31.8125 C-98.88091797 32.52921875 -99.26183594 33.2459375 -99.65429688 33.984375 C-102.09801676 38.72630431 -103.57486286 43.22164547 -104.6875 48.4375 C-90.10329508 41.95780627 -76.25559354 34.27912643 -62.52441406 26.15820312 C-57.89348089 23.4375 -57.89348089 23.4375 -55.6875 23.4375 C-55.54054688 22.89222656 -55.39359375 22.34695312 -55.2421875 21.78515625 C-53.12031092 14.65126086 -50.03154445 7.66686297 -43.6875 3.4375 C-38.00006346 3.4375 -35.08191299 5.27271677 -30.97265625 8.8671875 C-29.6875 10.4375 -29.6875 10.4375 -29.6875 13.4375 C-28.92566406 12.83421875 -28.16382813 12.2309375 -27.37890625 11.609375 C-18.27094924 4.55952063 -11.7012254 0.15070232 0 0 Z " fill="#0155FC" transform="translate(1137.6875,144.5625)"/>
<path d="M0 0 C5.34468199 4.01845817 7.98600662 9.82272397 9.57421875 16.18359375 C12.72856601 41.44510357 -0.07592016 67.47849295 -15.05078125 87.05859375 C-18.52893505 91.28400715 -22.23631923 95.26308427 -26.05078125 99.18359375 C-26.58912598 99.74804199 -27.1274707 100.31249023 -27.68212891 100.89404297 C-31.07964682 104.30612019 -33.69471319 105.8898935 -38.42578125 107.18359375 C-40.33691435 108.13255195 -42.23275386 109.11284373 -44.11328125 110.12109375 C-55.47064416 115.81369354 -68.53785659 118.81848485 -81.15234375 115.45703125 C-88.03959905 112.28425072 -90.86417184 107.01455219 -93.42578125 100.18359375 C-97.77959669 82.28457471 -90.62933533 66.72138413 -81.86279297 51.54394531 C-68.68830892 29.90430688 -47.09415382 5.73628453 -22.21484375 -2.2265625 C-14.60965309 -3.83494316 -6.81652451 -4.12992785 0 0 Z " fill="#6ECE5E" transform="translate(1368.42578125,78.81640625)"/>
<path d="M0 0 C11.7354963 -0.45557051 21.82476277 3.83258776 30.51171875 11.7421875 C34.22228755 15.85498598 37.13455901 20.61502822 40.16015625 25.23828125 C43.62044793 30.48338485 47.23474198 35.62301556 50.828125 40.77734375 C51.83721924 42.22560547 51.83721924 42.22560547 52.86669922 43.703125 C53.85500732 45.12044922 53.85500732 45.12044922 54.86328125 46.56640625 C55.50668457 47.49614258 56.15008789 48.42587891 56.81298828 49.38378906 C58.12884795 51.24948657 59.47723027 53.09261395 60.85498047 54.91308594 C61.5048291 55.78352539 62.15467773 56.65396484 62.82421875 57.55078125 C63.41388428 58.31825684 64.0035498 59.08573242 64.61108398 59.87646484 C65.765625 62.15234375 65.765625 62.15234375 65.56323242 64.80395508 C64.52593087 67.85807311 62.99822161 69.27907198 60.640625 71.46484375 C57.70381238 74.26732267 54.89546241 77.05950679 52.265625 80.15234375 C49.71870892 83.12374584 47.05183641 85.90378385 44.265625 88.65234375 C40.21657302 92.65335613 36.4633399 96.82847117 32.765625 101.15234375 C31.45476672 102.65377867 30.14230224 104.15381299 28.828125 105.65234375 C28.24160156 106.32265625 27.65507812 106.99296875 27.05078125 107.68359375 C26.62667969 108.16828125 26.20257813 108.65296875 25.765625 109.15234375 C26.27609375 110.1990625 26.7865625 111.24578125 27.3125 112.32421875 C31.92888206 121.88040991 36.33618746 131.52581612 40.56604004 141.25891113 C41.1156884 142.52102745 41.66866988 143.78169743 42.22497559 145.04089355 C43.01123218 146.8238035 43.78325892 148.61296809 44.5546875 150.40234375 C45.00537598 151.43875 45.45606445 152.47515625 45.92041016 153.54296875 C46.765625 156.15234375 46.765625 156.15234375 45.765625 159.15234375 C41.21473193 154.15227163 36.84072217 149.08333801 32.73046875 143.71484375 C30.35080485 140.6113457 27.93455702 137.53776925 25.515625 134.46484375 C24.56246142 133.2526345 23.60933688 132.04039456 22.65625 130.828125 C22.17736328 130.2192041 21.69847656 129.6102832 21.20507812 128.98291016 C19.34682269 126.61974881 17.48947077 124.25587855 15.63232422 121.8918457 C14.7174865 120.72746222 13.80244579 119.5632382 12.88720703 118.39916992 C10.61603858 115.51016326 8.34779627 112.61895897 6.0859375 109.72265625 C1.18828371 103.45846364 -3.76735596 97.24879865 -8.796875 91.08984375 C-14.40969722 84.20769071 -19.90399072 77.25639463 -25.234375 70.15234375 C-25.9046875 69.26933594 -26.575 68.38632813 -27.265625 67.4765625 C-35.57985223 56.15018939 -37.74494325 46.03595712 -36.234375 32.15234375 C-33.93418871 21.15538571 -27.21281741 12.67202543 -18.234375 6.15234375 C-12.22302313 2.55111593 -7.00257361 0.4774482 0 0 Z " fill="#FDFEFD" transform="translate(345.234375,135.84765625)"/>
<path d="M0 0 C4.75197436 1.58399145 7.37693252 3.72537151 10 8 C11.37647059 14.24705882 11.37647059 14.24705882 10 17 C8.35 16.67 6.7 16.34 5 16 C5 15.34 5 14.68 5 14 C1.1891334 13.43242412 -0.91912788 13.33801258 -4.2578125 15.3828125 C-6.56739917 17.1913363 -8.78833407 19.07344754 -11 21 C-11.99 21.7425 -12.98 22.485 -14 23.25 C-22.51681142 30.445644 -34.16294154 43.62941536 -35.3125 55.125 C-35.18854738 57.92680844 -35.18854738 57.92680844 -34 59.875 C-30.32559249 61.94185423 -25.90549611 61.45428164 -21.90478516 60.50048828 C-19.67418671 59.77938741 -17.49656816 58.97677034 -15.3125 58.125 C-14.49289795 57.81183838 -13.6732959 57.49867676 -12.82885742 57.17602539 C10.11263941 48.20836086 35.01065852 36.71460534 52.875 19.4375 C58.69305596 14.16293778 64.68673144 9.869702 72.75 9.4375 C77.13169192 9.73782686 79.67575773 11.04511798 83 14 C87.66110438 19.53642915 90.42196494 23.3553536 90.2578125 30.6953125 C89.83013306 34.51850753 88.63131098 36.18510918 86 39 C77.50804026 45.40254961 64.92120343 54.06967047 54 53 C51.5625 51 51.5625 51 50 49 C48.71677453 50.0595877 48.71677453 50.0595877 48.875 52.5 C48.71677453 54.9404123 48.71677453 54.9404123 50 56 C56.37174399 56.40363989 61.66355434 55.31367834 67.75 53.5 C68.65524414 53.23517822 69.56048828 52.97035645 70.49316406 52.69750977 C77.02641569 50.72814287 83.40910446 48.4555972 89.75 45.9375 C90.54631836 45.62167969 91.34263672 45.30585938 92.16308594 44.98046875 C97.00978165 42.99040774 101.51107141 40.67545038 106.00854492 37.98583984 C108.73250773 36.63738308 111.01933583 36.61786357 114 37 C113.50738733 41.26930982 111.03522496 44.15609391 108 47 C104.55570299 49.33122602 100.9317705 51.25910814 97.25 53.1875 C96.20175049 53.7448584 95.15350098 54.3022168 94.07348633 54.87646484 C86.39800294 58.89399828 78.60334405 62.60664774 70.6875 66.125 C69.68170898 66.57383545 68.67591797 67.0226709 67.63964844 67.48510742 C58.93242004 71.25385382 49.62739642 75.14223347 40 74 C35.20357942 71.60178971 32.39821029 68.79642058 30 64 C28.83794924 56.51122841 31.86723065 50.71307718 35 44 C34.23429687 44.48859497 34.23429687 44.48859497 33.453125 44.98706055 C-22.43635619 80.49397496 -22.43635619 80.49397496 -41 78 C-44.1927945 76.46786995 -46.51925182 74.50483312 -49 72 C-49.7425 71.278125 -50.485 70.55625 -51.25 69.8125 C-53.9306675 65.50428438 -55.4186801 60.80283863 -57 56 C-57.45213867 56.32685791 -57.90427734 56.65371582 -58.37011719 56.99047852 C-63.54129868 60.71684815 -68.74947287 64.38624374 -74 68 C-74.60118652 68.41427246 -75.20237305 68.82854492 -75.82177734 69.25537109 C-81.55017939 73.12758526 -86.70539289 76.21337733 -93.80078125 75.69921875 C-97.80001638 74.42770349 -99.94762784 71.53674465 -102 68 C-106.18341203 55.44976391 -99.68666241 40.75959423 -94.125 29.5 C-90.54414351 22.50973358 -86.65232474 15.43488316 -80 11 C-75.59357874 11.23191691 -73.15194698 13.01394496 -70 16 C-68.1474886 18.49130843 -67.14391588 20.43872809 -66.375 23.4375 C-67.11964421 26.49054127 -67.80055811 26.79900009 -70.23828125 28.63671875 C-74.30678204 32.01318162 -76.47407123 35.68980582 -78.8125 40.375 C-79.19341797 41.09171875 -79.57433594 41.8084375 -79.96679688 42.546875 C-82.41051676 47.28880431 -83.88736286 51.78414547 -85 57 C-75.2730861 52.57225227 -65.84061149 47.9496188 -56.66015625 42.46875 C-54 41 -54 41 -52 41 C-51.74347656 40.27167969 -51.48695312 39.54335937 -51.22265625 38.79296875 C-47.43850731 30.14866685 -39.36724574 22.83889357 -33 16 C-32.34128906 15.28714844 -31.68257812 14.57429687 -31.00390625 13.83984375 C-21.48655197 3.90119813 -13.84842142 -0.92772616 0 0 Z " fill="#010301" transform="translate(1626,136)"/>
<path d="M0 0 C3.83394272 2.32310936 6.22299886 5.08907632 7.4375 9.4375 C7.71861804 13.70472775 7.22459239 17.13708649 5 20.8125 C2.48839168 22.40522723 0.72012375 22.95589675 -2.125 23.6875 C-12.8044549 26.63409413 -21.01789942 35.42869161 -29.2109375 42.5546875 C-31.99796595 44.97032198 -34.84720889 47.28634316 -37.75 49.5625 C-42.3492597 53.19508443 -46.6626526 57.09294278 -50.96875 61.06640625 C-53.16962894 63.07835432 -55.40852499 65.01574528 -57.6875 66.9375 C-65.80131508 74.03916228 -72.18361992 82.11013454 -77.5625 91.4375 C-78.13871094 92.41589844 -78.13871094 92.41589844 -78.7265625 93.4140625 C-79.79179148 95.99251396 -79.93496382 98.15242118 -80 100.9375 C-80.03996094 101.8759375 -80.07992187 102.814375 -80.12109375 103.78125 C-79.76722649 106.58056331 -79.76722649 106.58056331 -77.58984375 108.59765625 C-73.75792586 110.92647345 -69.97498543 112.13352467 -65.6875 113.375 C-63.98415082 113.89249183 -62.28102837 114.41073053 -60.578125 114.9296875 C-59.73314453 115.18331055 -58.88816406 115.43693359 -58.01757812 115.69824219 C-39.46434092 121.28487726 -39.46434092 121.28487726 -31.5625 126.4375 C-30.675625 126.994375 -29.78875 127.55125 -28.875 128.125 C-23.37733753 133.62266247 -20.18887361 139.05181686 -19.9375 146.9375 C-20.76031671 161.62820665 -30.60993599 174.43261113 -41.03125 184.28515625 C-54.28245463 195.55277006 -67.80181545 203.89632649 -85.71484375 203.71875 C-89.62934185 203.3321329 -91.72493292 202.12955082 -94.5625 199.4375 C-98.86686447 193.53969291 -98.22341658 187.45397481 -97.5625 180.4375 C-95.7699598 171.91695892 -90.53906933 166.46641884 -84.5625 160.4375 C-83.55490577 159.38254451 -82.5484452 158.32650539 -81.54296875 157.26953125 C-76.14330783 151.66095242 -70.58710736 146.40841421 -64.4375 141.625 C-63.89319336 141.19832031 -63.34888672 140.77164063 -62.78808594 140.33203125 C-58.94409016 137.4375 -58.94409016 137.4375 -55.5625 137.4375 C-57.18798078 142.56634617 -60.32369312 146.43323197 -63.5 150.6875 C-68.04249011 156.87585668 -72.44848478 163.12067062 -76.625 169.5625 C-77.28520142 170.57231934 -77.28520142 170.57231934 -77.95874023 171.60253906 C-83.69050038 180.43927348 -83.69050038 180.43927348 -86.5625 190.4375 C-74.43264467 188.10483551 -65.16227598 182.13930722 -56.5625 173.4375 C-55.86382813 172.76074219 -55.16515625 172.08398438 -54.4453125 171.38671875 C-47.34172051 164.04818305 -39.34799273 152.23850173 -39.5 141.75 C-39.50902344 140.94175781 -39.51804687 140.13351563 -39.52734375 139.30078125 C-39.53894531 138.68589844 -39.55054688 138.07101563 -39.5625 137.4375 C-46.69112131 132.57221596 -54.00221641 130.31195385 -62.25 128.0625 C-76.33398692 124.15744874 -90.92076774 119.97569181 -98.6328125 106.578125 C-102.2895332 98.605815 -101.38798447 89.02779294 -98.59375 80.9296875 C-90.55677349 61.50699428 -73.39205713 44.82727609 -57.62890625 31.28515625 C-55.35100522 29.24839408 -53.20831412 27.11275925 -51.0625 24.9375 C-47.71719133 21.552162 -44.28281789 18.35990775 -40.671875 15.26171875 C-37.38139792 12.41606542 -34.17513506 9.47774804 -30.95703125 6.55078125 C-29.77173828 5.50470703 -29.77173828 5.50470703 -28.5625 4.4375 C-27.76199219 3.72980469 -26.96148438 3.02210937 -26.13671875 2.29296875 C-18.95529868 -2.88332037 -8.0954828 -3.53892588 0 0 Z " fill="#0155FC" transform="translate(916.5625,45.5625)"/>
<path d="M0 0 C2.94395595 0.9831914 4.46288265 2.03243961 7 4 C7.9296875 6.75 7.9296875 6.75 8 10 C6.82712168 12.3336962 5.6661413 14.25440761 4.1875 16.375 C-2.42218302 26.51037788 -6.57737528 37.78812397 -11 49 C-4.98830307 44.22600538 0.76389347 39.39563181 6.1171875 33.890625 C8.56598777 31.43166374 11.1620333 29.18199412 13.796875 26.92578125 C16.44208056 24.61357142 18.99377028 22.20927923 21.5625 19.8125 C31.0896509 11.20394492 31.0896509 11.20394492 36.0625 10.85546875 C39.3452951 11.07874709 41.70579209 11.80386139 44.4375 13.625 C46.53557571 16.81407508 46.74556375 19.19519942 47 23 C46.0390625 26.5703125 46.0390625 26.5703125 44.625 30.125 C41.97651404 36.88677701 40.86947685 42.03402274 40.9375 49.3125 C40.94652344 50.56675781 40.95554687 51.82101563 40.96484375 53.11328125 C40.97644531 54.06589844 40.98804688 55.01851562 41 56 C44.70091031 55.41545143 47.49288286 54.3906915 50.7578125 52.56640625 C51.63050781 52.08236328 52.50320313 51.59832031 53.40234375 51.09960938 C54.30082031 50.59236328 55.19929687 50.08511719 56.125 49.5625 C57.03121094 49.05912109 57.93742188 48.55574219 58.87109375 48.03710938 C62.32411758 46.11108942 65.70868185 44.1942121 69 42 C69.99 42 70.98 42 72 42 C71.78859756 50.24469506 65.37062323 55.81684603 59.77416992 61.20092773 C51.62364074 68.81618269 42.97531827 76.47804552 31.41015625 76.26171875 C29 76 29 76 26.5625 74.625 C19.99122267 63.58525409 20.94506822 50.23437054 23.5625 38.07421875 C24.06879398 36.02715217 24.06879398 36.02715217 24 34 C17.67428767 40.11288463 11.81713944 46.271651 6.33203125 53.16015625 C2.88441112 57.35851444 -0.81246776 61.30425841 -4.51953125 65.2734375 C-6.99010327 67.91696496 -6.99010327 67.91696496 -9 70.58203125 C-13.01588564 75.43717424 -18.40280976 80.04074927 -24.578125 81.6875 C-28.58782208 81.89993428 -30.36780405 81.55114519 -33.4375 78.875 C-36.55349993 73.14156013 -38.33879901 67.50718588 -37 61 C-35.52285364 58.29264664 -33.79933572 55.8334537 -32.05078125 53.29296875 C-24.56769948 41.27727746 -20.31544203 26.7990296 -15.32495117 13.63256836 C-14.92123291 12.56917236 -14.51751465 11.50577637 -14.1015625 10.41015625 C-13.74400879 9.46277588 -13.38645508 8.51539551 -13.01806641 7.53930664 C-10.20365331 0.51947197 -7.82389003 -0.99909387 0 0 Z " fill="#0156FC" transform="translate(945,131)"/>
<path d="M0 0 C0.66 0 1.32 0 2 0 C3.2890625 1.4609375 3.2890625 1.4609375 4.625 3.375 C5.07101562 4.00148438 5.51703125 4.62796875 5.9765625 5.2734375 C7 7 7 7 7 9 C7.5775 9.20625 8.155 9.4125 8.75 9.625 C11.86693015 11.52979065 13.18297857 13.86720443 15 17 C15.165 17.7425 15.33 18.485 15.5 19.25 C15.665 19.8275 15.83 20.405 16 21 C17.32338632 21.68620031 18.65949948 22.34786461 20 23 C23.81769032 26.26802286 26.46517244 29.66966959 29 34 C30.56177791 35.82005642 32.15986229 37.59527769 33.79296875 39.3515625 C35 41 35 41 35 44 C35.59296875 44.2578125 36.1859375 44.515625 36.796875 44.78125 C39.17660965 46.09769895 40.50978792 47.42580782 42.25 49.5 C43.03117187 50.41265625 43.03117187 50.41265625 43.828125 51.34375 C45 53 45 53 45 55 C45.99 55.33 46.98 55.66 48 56 C49.39453125 57.6015625 49.39453125 57.6015625 50.8125 59.625 C52.26947272 61.69006498 53.66889959 63.67009864 55.46222842 65.45693308 C59.22014799 69.30786345 60.68774067 71.98475892 60.77448463 77.37444401 C60.74827065 78.563328 60.74827065 78.563328 60.7215271 79.77622986 C60.72923126 81.06230385 60.72923126 81.06230385 60.73709106 82.37435913 C60.74698812 85.24375284 60.71394649 88.11102444 60.68115234 90.98022461 C60.67931359 93.07364873 60.68011656 95.16707656 60.68334389 97.260499 C60.68469705 102.86066218 60.64995341 108.46005429 60.60768127 114.06003571 C60.57348078 119.31710712 60.57190097 124.57399215 60.56762695 129.83117676 C60.53615804 145.20005308 60.4523909 160.56878631 60.375 175.9375 C60.25125 210.278125 60.1275 244.61875 60 280 C-14.91 280 -89.82 280 -167 280 C-167.04125 260.1175 -167.0825 240.235 -167.125 219.75 C-167.14320801 213.46936523 -167.16141602 207.18873047 -167.18017578 200.71777344 C-167.18920898 193.05517578 -167.18920898 193.05517578 -167.19088745 189.46929932 C-167.19396094 186.96196788 -167.20099982 184.45463943 -167.21115112 181.94732666 C-167.22575054 178.15200657 -167.22781332 174.35686732 -167.22705078 170.56152344 C-167.234247 169.44234402 -167.24144321 168.3231646 -167.2488575 167.17007065 C-167.24472501 165.63783545 -167.24472501 165.63783545 -167.24050903 164.074646 C-167.24235262 163.18603756 -167.24419621 162.29742912 -167.24609566 161.38189316 C-166.98264808 158.83205544 -166.28632737 157.19771184 -165 155 C-164.67 155 -164.34 155 -164 155 C-164 194.93 -164 234.86 -164 276 C-90.74 276 -17.48 276 58 276 C58 208.35 58 140.7 58 71 C38.86 70.67 19.72 70.34 0 70 C0 46.9 0 23.8 0 0 Z " fill="#FCCD00" transform="translate(708,28)"/>
<path d="M0 0 C1.96993637 1.47403336 1.96993637 1.47403336 4 4 C4.38420816 6.93213433 4.52361916 9.48538123 4.48101807 12.41546631 C4.48444214 13.27028091 4.48786621 14.12509552 4.49139404 15.0058136 C4.49802396 17.88409599 4.47590826 20.7614509 4.45410156 23.63964844 C4.45287648 25.73270768 4.45340976 27.82576857 4.45556259 29.91882706 C4.45646681 35.53142321 4.43325915 41.14367926 4.40512085 46.75619507 C4.38236565 52.01992889 4.38126973 57.28357938 4.37841797 62.54736328 C4.35741645 77.94828736 4.30157197 93.34914795 4.25 108.75 C4.1675 143.1525 4.085 177.555 4 213 C-70.91 213 -145.82 213 -223 213 C-223.04125 193.1175 -223.0825 173.235 -223.125 152.75 C-223.14320801 146.46936523 -223.16141602 140.18873047 -223.18017578 133.71777344 C-223.18920898 126.05517578 -223.18920898 126.05517578 -223.19088745 122.46929932 C-223.19396094 119.96196788 -223.20099982 117.45463943 -223.21115112 114.94732666 C-223.22575054 111.15200657 -223.22781332 107.35686732 -223.22705078 103.56152344 C-223.234247 102.44234402 -223.24144321 101.3231646 -223.2488575 100.17007065 C-223.24472501 98.63783545 -223.24472501 98.63783545 -223.24050903 97.074646 C-223.24235262 96.18603756 -223.24419621 95.29742912 -223.24609566 94.38189316 C-222.98264808 91.83205544 -222.28632737 90.19771184 -221 88 C-220.67 88 -220.34 88 -220 88 C-220 127.93 -220 167.86 -220 209 C-146.74 209 -73.48 209 2 209 C2 141.35 2 73.7 2 4 C-17.14 3.67 -36.28 3.34 -56 3 C-56 2.67 -56 2.34 -56 2 C-37.52 2 -19.04 2 0 2 C0 1.34 0 0.68 0 0 Z " fill="#ACA210" transform="translate(764,95)"/>
<path d="M0 0 C14.19 0 28.38 0 43 0 C43.020625 5.424375 43.04125 10.84875 43.0625 16.4375 C43.071604 18.15122803 43.08070801 19.86495605 43.09008789 21.63061523 C43.09300716 22.98160727 43.09555569 24.33260019 43.09765625 25.68359375 C43.10277222 26.39100708 43.10788818 27.09842041 43.11315918 27.82727051 C43.11347032 29.55192617 43.06225761 31.27646838 43 33 C42 34 42 34 38.03100586 34.11352539 C36.25894393 34.1133662 34.4868774 34.10766785 32.71484375 34.09765625 C31.78402481 34.0962413 30.85320587 34.09482635 29.8941803 34.09336853 C26.90858809 34.08775172 23.92306971 34.0751964 20.9375 34.0625 C18.91862087 34.05748716 16.89974057 34.05292388 14.88085938 34.04882812 C9.92054428 34.03777683 4.96028468 34.02050095 0 34 C0 29.05 0 24.1 0 19 C3.96 17.515 3.96 17.515 8 16 C5.36399506 13.92885326 3.04951395 12.52475697 0 11 C0 7.37 0 3.74 0 0 Z " fill="#0D0A00" transform="translate(583,146)"/>
<path d="M0 0 C53.79 0 107.58 0 163 0 C163.33 23.1 163.66 46.2 164 70 C182.33951942 70.28931074 182.33951942 70.28931074 200.67919922 70.56811523 C202.97103504 70.6062257 205.26286495 70.64469376 207.5546875 70.68359375 C208.75359619 70.70006958 209.95250488 70.71654541 211.18774414 70.73352051 C212.32445557 70.75370239 213.46116699 70.77388428 214.63232422 70.79467773 C215.62271698 70.81022202 216.61310974 70.8257663 217.6335144 70.84178162 C220 71 220 71 222 72 C222 139.65 222 207.3 222 277 C148.74 277 75.48 277 0 277 C0 236.74 0 196.48 0 155 C0.33 155 0.66 155 1 155 C1 194.93 1 234.86 1 276 C73.27 276 145.54 276 220 276 C220 209.01 220 142.02 220 73 C200.53 73 181.06 73 161 73 C161 49.24 161 25.48 161 1 C108.2 1 55.4 1 1 1 C1 8.26 1 15.52 1 23 C45.88 23 90.76 23 137 23 C137 23.33 137 23.66 137 24 C91.79 24 46.58 24 0 24 C0 16.08 0 8.16 0 0 Z " fill="#524200" transform="translate(544,27)"/>
<path d="M0 0 C7.41460363 -0.02255577 14.82918865 -0.04091784 22.24381924 -0.05181217 C25.68640348 -0.05703982 29.12896312 -0.06413531 32.5715332 -0.07543945 C36.52555043 -0.08834235 40.47955756 -0.09322918 44.43359375 -0.09765625 C46.29605995 -0.10539818 46.29605995 -0.10539818 48.19615173 -0.11329651 C49.33725906 -0.11337204 50.47836639 -0.11344757 51.65405273 -0.11352539 C52.664431 -0.115746 53.67480927 -0.11796661 54.71580505 -0.12025452 C57 0 57 0 58 1 C58.09822744 2.46805292 58.1279837 3.9407746 58.12939453 5.41210938 C58.13254669 6.34978149 58.13569885 7.28745361 58.13894653 8.25354004 C58.1369223 9.27330933 58.13489807 10.29307861 58.1328125 11.34375 C58.13376923 12.38317749 58.13472595 13.42260498 58.13571167 14.49353027 C58.13639363 16.69604554 58.13453827 18.89856279 58.13037109 21.10107422 C58.12502308 24.48539719 58.13031559 27.86958744 58.13671875 31.25390625 C58.13605797 33.38802113 58.13477681 35.52213592 58.1328125 37.65625 C58.13483673 38.67601929 58.13686096 39.69578857 58.13894653 40.74645996 C58.13421829 42.15296814 58.13421829 42.15296814 58.12939453 43.58789062 C58.12859894 44.41760376 58.12780334 45.24731689 58.12698364 46.10217285 C58 48 58 48 57 49 C55.22008076 49.09370624 53.43643261 49.11744271 51.65405273 49.11352539 C50.5129454 49.11344986 49.37183807 49.11337433 48.19615173 49.11329651 C46.9545076 49.10813522 45.71286346 49.10297394 44.43359375 49.09765625 C42.53795433 49.09553383 42.53795433 49.09553383 40.60401917 49.09336853 C37.23875111 49.08870582 33.8735501 49.0797148 30.50830078 49.06866455 C27.0765033 49.05844846 23.64469891 49.05387049 20.21289062 49.04882812 C13.47523936 49.0377738 6.73762889 49.02049637 0 49 C0 42.07 0 35.14 0 28 C3.465 27.505 3.465 27.505 7 27 C7 31.95 7 36.9 7 42 C20.86 41.67 34.72 41.34 49 41 C49.33 30.11 49.66 19.22 50 8 C35.81 8 21.62 8 7 8 C7 11.63 7 15.26 7 19 C4.69 18.67 2.38 18.34 0 18 C0 12.06 0 6.12 0 0 Z " fill="#E5C100" transform="translate(576,138)"/>
<path d="M0 0 C1.31253754 -0.00281982 2.62507507 -0.00563965 3.97738647 -0.00854492 C5.44561781 -0.00660032 6.91384901 -0.00455213 8.38208008 -0.00241089 C9.91753175 -0.00376486 11.45298311 -0.00554477 12.98843384 -0.00772095 C17.17013463 -0.01229573 21.35181087 -0.01050554 25.53351212 -0.00734186 C29.89994627 -0.00481849 34.26637826 -0.00715573 38.6328125 -0.00872803 C45.96688211 -0.01054979 53.30094168 -0.00814324 60.63500977 -0.00338745 C69.12660751 0.00205518 77.61818124 0.00029253 86.1097784 -0.00521386 C93.38703842 -0.00974479 100.66429119 -0.01039563 107.94155216 -0.00777519 C112.29383297 -0.00621231 116.64610248 -0.00601895 120.99838257 -0.00931168 C125.08915715 -0.01219011 129.17990064 -0.01021521 133.27067184 -0.00441742 C134.77638065 -0.00308967 136.28209205 -0.00348419 137.78779984 -0.00568008 C139.83460652 -0.00839098 141.8814189 -0.0043973 143.92822266 0 C145.07639969 0.00037703 146.22457672 0.00075405 147.407547 0.0011425 C149.96411133 0.12698364 149.96411133 0.12698364 150.96411133 1.12698364 C151.08911133 3.62698364 151.08911133 3.62698364 150.96411133 6.12698364 C149.15361216 7.93748281 146.36488068 7.25316716 143.92822266 7.25396729 C142.61568512 7.25678711 141.30314758 7.25960693 139.95083618 7.26251221 C138.48260484 7.26056761 137.01437364 7.25851942 135.54614258 7.25637817 C134.0106909 7.25773215 132.47523955 7.25951206 130.93978882 7.26168823 C126.75808802 7.26626302 122.57641179 7.26447282 118.39471054 7.26130915 C114.02827638 7.25878578 109.66184439 7.26112302 105.29541016 7.26269531 C97.96134054 7.26451708 90.62728098 7.26211052 83.29321289 7.25735474 C74.80161515 7.2519121 66.31004141 7.25367475 57.81844425 7.25918114 C50.54118424 7.26371208 43.26393147 7.26436292 35.98667049 7.26174247 C31.63438969 7.26017959 27.28212018 7.25998623 22.92984009 7.26327896 C18.83906551 7.2661574 14.74832202 7.2641825 10.65755081 7.2583847 C9.15184201 7.25705696 7.64613061 7.25745147 6.14042282 7.25964737 C4.09361613 7.26235827 2.04680376 7.25836459 0 7.25396729 C-1.14817703 7.25359026 -2.29635406 7.25321323 -3.47932434 7.25282478 C-6.03588867 7.12698364 -6.03588867 7.12698364 -7.03588867 6.12698364 C-7.16088867 3.62698364 -7.16088867 3.62698364 -7.03588867 1.12698364 C-5.2253895 -0.68351553 -2.43665802 0.00080012 0 0 Z " fill="#DDBB00" transform="translate(582.035888671875,260.8730163574219)"/>
<path d="M0 0 C4.5921848 3.33158505 7.64815819 6.79652518 9.1875 12.3125 C9.81025933 18.64388649 8.85887482 23.0580553 5.1875 28.3125 C1.93330718 31.74512115 -1.24544882 34.08274671 -6.08203125 34.515625 C-11.43484344 34.61429435 -15.29301528 34.49668241 -19.8125 31.3125 C-24.44605676 26.70074821 -26.93894969 23.20260417 -27.0625 16.5 C-26.97675774 11.12941649 -26.04209371 7.60133412 -22.1953125 3.65234375 C-16.0124871 -1.95996343 -7.79132597 -4.1643294 0 0 Z " fill="#6FD05F" transform="translate(355.8125,159.6875)"/>
<path d="M0 0 C21.65301465 -0.20838734 43.30578759 -0.36897391 64.95960331 -0.46630955 C75.01402495 -0.51270677 85.06781192 -0.57595506 95.12182617 -0.67895508 C103.8855141 -0.76869329 112.64874241 -0.82673152 121.41287702 -0.84679645 C126.05322035 -0.85852497 130.69224886 -0.88606125 135.33217049 -0.95157051 C139.70167056 -1.01276073 144.06931733 -1.03148569 148.43920517 -1.01796913 C150.04086197 -1.02044087 151.64258207 -1.03828957 153.24386787 -1.07284927 C165.26760893 -1.31957558 165.26760893 -1.31957558 169.58215141 1.96684456 C171.48400193 4.2717733 172.91586333 6.21582073 174 9 C173.67 9.99 173.34 10.98 173 12 C169 7.25 169 7.25 169 5 C168.34 5 167.68 5 167 5 C167 27.77 167 50.54 167 74 C166.67 74 166.34 74 166 74 C166 50.9 166 27.8 166 4 C112.21 4 58.42 4 3 4 C3 11.92 3 19.84 3 28 C-1 31 -1 31 -23 31 C-22.67 48.16 -22.34 65.32 -22 83 C-22.99 83 -23.98 83 -25 83 C-25.10125241 75.50703445 -25.17140327 68.01424467 -25.21972656 60.52075195 C-25.23986697 57.97055468 -25.26718097 55.42040372 -25.30175781 52.87036133 C-25.35016739 49.20903103 -25.37294474 45.54831018 -25.390625 41.88671875 C-25.41127014 40.7428923 -25.43191528 39.59906586 -25.45318604 38.420578 C-25.45348816 37.35970474 -25.45379028 36.29883148 -25.45410156 35.20581055 C-25.46298401 34.27093307 -25.47186646 33.3360556 -25.48101807 32.37284851 C-25 30 -25 30 -23.11474609 28.19592285 C-20.60772934 26.77816465 -19.09896767 26.65194293 -16.234375 26.70703125 C-15.43225586 26.71452393 -14.63013672 26.7220166 -13.80371094 26.72973633 C-12.79598633 26.75704834 -11.78826172 26.78436035 -10.75 26.8125 C-7.5325 26.874375 -4.315 26.93625 -1 27 C-0.67 18.09 -0.34 9.18 0 0 Z " fill="#B29F0B" transform="translate(541,23)"/>
<path d="M0 0 C11.06534858 -0.02312283 22.13069145 -0.04091478 33.19605923 -0.05181217 C38.33359566 -0.05704113 43.47111563 -0.06413901 48.60864258 -0.07543945 C53.5623141 -0.08626787 58.51596974 -0.09227674 63.46965218 -0.09487724 C65.36397616 -0.09673157 67.25829924 -0.10035234 69.1526165 -0.10573006 C71.79634386 -0.11293989 74.44000471 -0.11399097 77.08374023 -0.11352539 C77.87495773 -0.11712067 78.66617523 -0.12071594 79.48136902 -0.12442017 C84.88594784 -0.11405216 84.88594784 -0.11405216 86 1 C86.0979057 2.49738124 86.12974864 3.99942892 86.125 5.5 C86.12886719 6.72203125 86.12886719 6.72203125 86.1328125 7.96875 C86 10 86 10 85 11 C82.35261911 11.09511266 79.73140999 11.12555635 77.08374023 11.11352539 C76.25454071 11.11367142 75.42534119 11.11381744 74.5710144 11.1139679 C71.81684802 11.11326851 69.06274839 11.10547493 66.30859375 11.09765625 C64.40430234 11.09579216 62.50001045 11.09436822 60.59571838 11.09336853 C55.57332037 11.08954263 50.55095108 11.07971173 45.52856445 11.06866455 C40.4077188 11.05845198 35.28686852 11.05387124 30.16601562 11.04882812 C20.11066443 11.03808953 10.0553346 11.02101224 0 11 C-0.19491452 9.54263913 -0.38069358 8.08405407 -0.5625 6.625 C-0.66691406 5.81289062 -0.77132812 5.00078125 -0.87890625 4.1640625 C-1 2 -1 2 0 0 Z " fill="#564400" transform="translate(649,137)"/>
<path d="M0 0 C4.83019381 5.24048054 9.23635466 10.9454401 13 17 C7.11867455 19.64596691 1.20732277 22.19533573 -4.76171875 24.63671875 C-5.55600784 24.96162796 -6.35029694 25.28653717 -7.1686554 25.62129211 C-8.83123569 26.30024492 -10.49417805 26.97831176 -12.1574707 27.65551758 C-13.85064236 28.34615123 -15.54269548 29.0395332 -17.23364258 29.7355957 C-19.69891337 30.75034281 -22.16738228 31.75691243 -24.63671875 32.76171875 C-25.7619117 33.22731453 -25.7619117 33.22731453 -26.90983582 33.70231628 C-30.93832537 35.32967742 -34.64986907 36.47740124 -39 37 C-37.68802978 26.70005471 -34.83501466 17.70490053 -26.99609375 10.5234375 C-19.98640696 5.1735787 -8.90068361 0 0 0 Z " fill="#FCFDFC" transform="translate(347,246)"/>
<path d="M0 0 C51.81 0 103.62 0 157 0 C157 1.98 157 3.96 157 6 C105.19 6 53.38 6 0 6 C0 4.02 0 2.04 0 0 Z " fill="#F0CB00" transform="translate(576,221)"/>
<path d="M0 0 C45.21 0 90.42 0 137 0 C138.25684394 2.51368789 138.13374676 4.2474374 138.14526367 7.06054688 C138.15164352 8.11504028 138.15802338 9.16953369 138.16459656 10.25598145 C138.16626579 11.97005188 138.16626579 11.97005188 138.16796875 13.71875 C138.17129715 14.88756714 138.17462555 16.05638428 138.17805481 17.26062012 C138.18312445 19.73542893 138.18546312 22.21024459 138.18530273 24.68505859 C138.18749088 28.48416309 138.20565104 32.28297812 138.22460938 36.08203125 C138.22754287 38.48176984 138.22952796 40.88150981 138.23046875 43.28125 C138.23765427 44.42396362 138.24483978 45.56667725 138.25224304 46.74401855 C138.24916641 47.79851196 138.24608978 48.85300537 138.24291992 49.93945312 C138.24434494 50.8705188 138.24576996 51.80158447 138.24723816 52.76086426 C138 55 138 55 136 57 C133.64555931 57.26171303 133.64555931 57.26171303 130.6343689 57.2784729 C128.92637871 57.29521812 128.92637871 57.29521812 127.18388367 57.31230164 C125.92872452 57.31446182 124.67356537 57.31662201 123.38037109 57.31884766 C121.40483498 57.33391609 121.40483498 57.33391609 119.38938904 57.34928894 C115.7718667 57.37665637 112.15438344 57.39175819 108.53678465 57.40471697 C104.75841492 57.42031814 100.98012536 57.44711789 97.20181274 57.4727478 C90.04434243 57.51958914 82.88685713 57.55630725 75.72931159 57.58942068 C67.58184963 57.62760433 59.43446809 57.67702426 51.28707385 57.72740483 C34.52476806 57.83080432 17.76242902 57.91855506 1 58 C0.67 67.24 0.34 76.48 0 86 C-0.99 86 -1.98 86 -3 86 C-3 75.77 -3 65.54 -3 55 C42.87 55 88.74 55 136 55 C136 37.18 136 19.36 136 1 C91.12 1 46.24 1 0 1 C0 0.67 0 0.34 0 0 Z " fill="#DCB400" transform="translate(544,51)"/>
<path d="M0 0 C7.41459942 -0.02312883 14.82919111 -0.04091785 22.24381924 -0.05181217 C25.68640348 -0.05703982 29.12896312 -0.06413531 32.5715332 -0.07543945 C36.52555043 -0.08834235 40.47955756 -0.09322918 44.43359375 -0.09765625 C46.29605995 -0.10539818 46.29605995 -0.10539818 48.19615173 -0.11329651 C49.33725906 -0.11337204 50.47836639 -0.11344757 51.65405273 -0.11352539 C52.664431 -0.115746 53.67480927 -0.11796661 54.71580505 -0.12025452 C57 0 57 0 58 1 C58.09822744 2.46805292 58.1279837 3.9407746 58.12939453 5.41210938 C58.13254669 6.34978149 58.13569885 7.28745361 58.13894653 8.25354004 C58.1369223 9.27330933 58.13489807 10.29307861 58.1328125 11.34375 C58.13376923 12.38317749 58.13472595 13.42260498 58.13571167 14.49353027 C58.13639363 16.69604554 58.13453827 18.89856279 58.13037109 21.10107422 C58.12502308 24.48539719 58.13031559 27.86958744 58.13671875 31.25390625 C58.13605797 33.38802113 58.13477681 35.52213592 58.1328125 37.65625 C58.13483673 38.67601929 58.13686096 39.69578857 58.13894653 40.74645996 C58.13421829 42.15296814 58.13421829 42.15296814 58.12939453 43.58789062 C58.12859894 44.41760376 58.12780334 45.24731689 58.12698364 46.10217285 C58 48 58 48 57 49 C55.22008076 49.09370624 53.43643261 49.11744271 51.65405273 49.11352539 C50.5129454 49.11344986 49.37183807 49.11337433 48.19615173 49.11329651 C46.9545076 49.10813522 45.71286346 49.10297394 44.43359375 49.09765625 C42.53795433 49.09553383 42.53795433 49.09553383 40.60401917 49.09336853 C37.23875111 49.08870582 33.8735501 49.0797148 30.50830078 49.06866455 C27.0765033 49.05844846 23.64469891 49.05387049 20.21289062 49.04882812 C13.47523936 49.0377738 6.73762889 49.02049637 0 49 C0 42.07 0 35.14 0 28 C3.465 27.505 3.465 27.505 7 27 C7 31.95 7 36.9 7 42 C21.19 41.67 35.38 41.34 50 41 C49.67 41.99 49.34 42.98 49 44 C34.48 44 19.96 44 5 44 C5 44.99 5 45.98 5 47 C21.83 47 38.66 47 56 47 C56 32.15 56 17.3 56 2 C37.52 2 19.04 2 0 2 C0 1.34 0 0.68 0 0 Z " fill="#E2C100" transform="translate(576,138)"/>
<path d="M0 0 C53.79 0 107.58 0 163 0 C163.33 23.1 163.66 46.2 164 70 C182.48 70.33 200.96 70.66 220 71 C220 71.33 220 71.66 220 72 C200.53 72 181.06 72 161 72 C161 48.57 161 25.14 161 1 C108.2 1 55.4 1 1 1 C1 8.26 1 15.52 1 23 C45.88 23 90.76 23 137 23 C137 23.33 137 23.66 137 24 C91.79 24 46.58 24 0 24 C0 16.08 0 8.16 0 0 Z " fill="#675200" transform="translate(544,27)"/>
<path d="M0 0 C27.39 0 54.78 0 83 0 C83 1.98 83 3.96 83 6 C55.61 6 28.22 6 0 6 C0 4.02 0 2.04 0 0 Z " fill="#E4C500" transform="translate(650,180)"/>
<path d="M0 0 C1.75739832 0.00138269 1.75739832 0.00138269 3.55029964 0.00279331 C4.20043889 0.00193889 4.85057814 0.00108446 5.52041858 0.00020415 C7.71464604 -0.00145243 9.90879826 0.00407358 12.10301876 0.00952244 C13.66964879 0.0098043 15.23627895 0.0096466 16.8029089 0.00907993 C21.06925401 0.00879191 25.33557126 0.0146894 29.60190988 0.02165389 C34.05556076 0.02788665 38.50921221 0.02849116 42.96286678 0.0296793 C51.40246468 0.03279285 59.84204969 0.04100655 68.2816419 0.05102879 C77.88728468 0.0621892 87.49292806 0.06770019 97.09857571 0.07272422 C116.86365443 0.08318914 136.62872153 0.10078904 156.39379025 0.12304783 C156.39379025 3.42304783 156.39379025 6.72304783 156.39379025 10.12304783 C103.92379025 10.12304783 51.45379025 10.12304783 -2.60620975 10.12304783 C-2.93620975 7.15304783 -3.26620975 4.18304783 -3.60620975 1.12304783 C-2.60620975 0.12304783 -2.60620975 0.12304783 0 0 Z M-2.60620975 2.12304783 C-2.77287642 4.62304783 -2.77287642 4.62304783 -2.60620975 7.12304783 C-0.79571058 8.933547 1.9930209 8.24923135 4.42967892 8.25003147 C5.74221645 8.2528513 7.05475399 8.25567112 8.40706539 8.25857639 C9.87529673 8.25663179 11.34352793 8.2545836 12.811759 8.25244236 C14.34721067 8.25379634 15.88266202 8.25557625 17.41811275 8.25775242 C21.59981355 8.2623272 25.78148979 8.26053701 29.96319103 8.25737333 C34.32962519 8.25484996 38.69605718 8.2571872 43.06249142 8.2587595 C50.39656103 8.26058126 57.73062059 8.25817471 65.06468868 8.25341892 C73.55628642 8.24797629 82.04786016 8.24973894 90.53945732 8.25524533 C97.81671734 8.25977627 105.09397011 8.2604271 112.37123108 8.25780666 C116.72351189 8.25624378 121.07578139 8.25605042 125.42806149 8.25934315 C129.51883607 8.26222158 133.60957956 8.26024668 137.70035076 8.25444889 C139.20605957 8.25312114 140.71177096 8.25351566 142.21747875 8.25571156 C144.26428544 8.25842245 146.31109781 8.25442878 148.35790157 8.25003147 C149.50607861 8.24965445 150.65425564 8.24927742 151.83722591 8.24888897 C154.32754871 8.41311872 154.32754871 8.41311872 155.39379025 7.12304783 C155.56045691 4.62304783 155.56045691 4.62304783 155.39379025 2.12304783 C153.58329107 0.31254866 150.79455959 0.99686431 148.35790157 0.99606419 C147.04536404 0.99324436 145.7328265 0.99042454 144.3805151 0.98751926 C142.91228376 0.98946387 141.44405256 0.99151205 139.9758215 0.9936533 C138.44036982 0.99229932 136.90491847 0.99051941 135.36946774 0.98834324 C131.18776694 0.98376845 127.0060907 0.98555865 122.82438946 0.98872232 C118.4579553 0.99124569 114.09152331 0.98890845 109.72508907 0.98733616 C102.39101946 0.98551439 95.0569599 0.98792095 87.72289181 0.99267673 C79.23129407 0.99811937 70.73972033 0.99635672 62.24812317 0.99085033 C54.97086315 0.98631939 47.69361038 0.98566856 40.41634941 0.988289 C36.0640686 0.98985188 31.7117991 0.99004524 27.359519 0.98675251 C23.26874442 0.98387407 19.17800093 0.98584897 15.08722973 0.99164677 C13.58152093 0.99297451 12.07580953 0.99258 10.57010174 0.9903841 C8.52329505 0.9876732 6.47648268 0.99166688 4.42967892 0.99606419 C3.28150188 0.99644121 2.13332485 0.99681824 0.95035458 0.99720669 C-1.53996822 0.83297694 -1.53996822 0.83297694 -2.60620975 2.12304783 Z " fill="#3D2F00" transform="translate(577.6062097549438,259.8769521713257)"/>
<path d="M0 0 C1.75739832 0.00138269 1.75739832 0.00138269 3.55029964 0.00279331 C4.20043889 0.00193889 4.85057814 0.00108446 5.52041858 0.00020415 C7.71464604 -0.00145243 9.90879826 0.00407358 12.10301876 0.00952244 C13.66964879 0.0098043 15.23627895 0.0096466 16.8029089 0.00907993 C21.06925401 0.00879191 25.33557126 0.0146894 29.60190988 0.02165389 C34.05556076 0.02788665 38.50921221 0.02849116 42.96286678 0.0296793 C51.40246468 0.03279285 59.84204969 0.04100655 68.2816419 0.05102879 C77.88728468 0.0621892 87.49292806 0.06770019 97.09857571 0.07272422 C116.86365443 0.08318914 136.62872153 0.10078904 156.39379025 0.12304783 C156.39379025 2.76304783 156.39379025 5.40304783 156.39379025 8.12304783 C156.06379025 8.12304783 155.73379025 8.12304783 155.39379025 8.12304783 C155.39379025 6.14304783 155.39379025 4.16304783 155.39379025 2.12304783 C103.58379025 2.12304783 51.77379025 2.12304783 -1.60620975 2.12304783 C-1.60620975 4.10304783 -1.60620975 6.08304783 -1.60620975 8.12304783 C49.87379025 8.12304783 101.35379025 8.12304783 154.39379025 8.12304783 C154.39379025 8.45304783 154.39379025 8.78304783 154.39379025 9.12304783 C133.94080551 9.14637508 113.48782345 9.16402615 93.03482819 9.17486 C83.53883641 9.18002333 74.04285289 9.18706672 64.54686642 9.19848728 C56.27326179 9.208433 47.99966314 9.21490099 39.7260527 9.21713632 C35.34245435 9.21844362 30.95887308 9.22153067 26.57528019 9.22877789 C22.45415524 9.23553634 18.33305452 9.23766515 14.21192455 9.23615551 C12.69492683 9.23643192 11.17792835 9.23843808 9.6609354 9.2422533 C7.59871723 9.24718784 5.53659198 9.24604703 3.47437191 9.24330235 C2.31752172 9.24422414 1.16067152 9.24514593 -0.03123474 9.24609566 C-2.60620975 9.12304783 -2.60620975 9.12304783 -3.60620975 8.12304783 C-3.73120975 4.62304783 -3.73120975 4.62304783 -3.60620975 1.12304783 C-2.60620975 0.12304783 -2.60620975 0.12304783 0 0 Z " fill="#6C5400" transform="translate(577.6062097549438,218.87695217132568)"/>
<path d="M0 0 C27.39 0 54.78 0 83 0 C83 1.65 83 3.3 83 5 C55.61 5 28.22 5 0 5 C0 3.35 0 1.7 0 0 Z " fill="#EDD300" transform="translate(650,140)"/>
<path d="M0 0 C0.78964645 0.00202423 1.57929291 0.00404846 2.39286804 0.00613403 C3.63425789 0.00350555 3.63425789 0.00350555 4.90072632 0.00082397 C7.65008104 -0.00359537 10.39937199 -0.00065627 13.14872742 0.00271606 C15.0506237 0.00204305 16.9525199 0.00107304 18.85441589 -0.00018311 C22.84591997 -0.00166019 26.83740171 0.00049482 30.8289032 0.00515747 C35.95738248 0.01085476 41.08580944 0.00757582 46.2142868 0.00158501 C50.14321795 -0.00202032 54.0721366 -0.00088215 58.00106812 0.0017128 C59.89259853 0.00238215 61.78413007 0.00155338 63.67565918 -0.00076675 C66.31449918 -0.00329282 68.95325323 0.00054665 71.59208679 0.00613403 C72.77655647 0.00309769 72.77655647 0.00309769 73.98495483 0 C79.3782149 0.02126605 79.3782149 0.02126605 80.49247742 1.13552856 C80.74247742 4.57302856 80.74247742 4.57302856 80.49247742 8.13552856 C76.75650046 10.62617987 73.87130119 10.41025358 69.54862976 10.37844849 C68.74025162 10.38034683 67.93187347 10.38224518 67.09899902 10.38420105 C64.42537254 10.38790775 61.75201728 10.37720771 59.07841492 10.36599731 C57.22421806 10.36480553 55.37002059 10.36435235 53.51582336 10.36460876 C49.63039876 10.36304418 45.74506634 10.35475513 41.85966492 10.34133911 C36.86799838 10.32432566 31.87643296 10.32052545 26.88474083 10.32128429 C23.05703254 10.32101302 19.22934655 10.31553906 15.40164566 10.30828285 C13.56035659 10.3050911 11.71906498 10.3031276 9.87777328 10.30238914 C7.31098325 10.30023226 4.74430271 10.29150295 2.17753601 10.28079224 C1.02583168 10.28147202 1.02583168 10.28147202 -0.1491394 10.28216553 C-5.39304658 10.25000457 -5.39304658 10.25000457 -6.50752258 9.13552856 C-6.64033508 7.32302856 -6.64033508 7.32302856 -6.63252258 5.13552856 C-6.63510071 4.41365356 -6.63767883 3.69177856 -6.64033508 2.94802856 C-6.34686405 -1.05698788 -3.31913622 0.01308762 0 0 Z M-4.50752258 2.13552856 C-4.50752258 4.11552856 -4.50752258 6.09552856 -4.50752258 8.13552856 C22.88247742 8.13552856 50.27247742 8.13552856 78.49247742 8.13552856 C78.49247742 6.15552856 78.49247742 4.17552856 78.49247742 2.13552856 C51.10247742 2.13552856 23.71247742 2.13552856 -4.50752258 2.13552856 Z " fill="#503F02" transform="translate(654.5075225830078,177.86447143554688)"/>
<path d="M0 0 C21.65298587 -0.2102924 43.30580325 -0.36897398 64.95960331 -0.46630955 C75.01402495 -0.51270677 85.06781192 -0.57595506 95.12182617 -0.67895508 C103.8855141 -0.76869329 112.64874241 -0.82673152 121.41287702 -0.84679645 C126.05322035 -0.85852497 130.69224886 -0.88606125 135.33217049 -0.95157051 C139.70167056 -1.01276073 144.06931733 -1.03148569 148.43920517 -1.01796913 C150.04086197 -1.02044087 151.64258207 -1.03828957 153.24386787 -1.07284927 C165.26760893 -1.31957558 165.26760893 -1.31957558 169.58215141 1.96684456 C171.48400193 4.2717733 172.91586333 6.21582073 174 9 C173.67 9.99 173.34 10.98 173 12 C172.52104231 11.0448467 172.52104231 11.0448467 172.03240871 10.07039738 C169.48283385 5.90403862 167.55155278 3.3981089 162.70230293 2.15385246 C158.4346586 1.84970145 154.24159808 1.8198392 149.96704102 1.88647461 C148.33053955 1.879145 146.69405174 1.86786221 145.05760193 1.85293579 C140.62775081 1.82368495 136.19975053 1.84958278 131.77001309 1.88552547 C127.13614091 1.9137 122.50252247 1.89096445 117.86863708 1.87367249 C109.09961166 1.84866286 100.3313144 1.869314 91.56235594 1.90644604 C81.57682252 1.94650084 71.5915479 1.93553827 61.60596955 1.92032993 C41.07042845 1.89019457 20.53540458 1.92399829 0 2 C0 1.34 0 0.68 0 0 Z " fill="#81A22D" transform="translate(541,23)"/>
<path d="M0 0 C2.0546875 1.79296875 2.0546875 1.79296875 3.875 4.1875 C4.79925781 5.35345703 4.79925781 5.35345703 5.7421875 6.54296875 C7 9 7 9 6.984375 11.59375 C5.07849734 16.25256206 0.40093639 18.02739094 -4 20 C-7.875 20.75 -7.875 20.75 -11 20 C-15.40808415 14.77990034 -16.12601445 10.67876602 -16 4 C-10.74743493 1.19048845 -6.01633927 -0.65335811 0 0 Z " fill="#020401" transform="translate(1562,118)"/>
<path d="M0 0 C2.0546875 1.79296875 2.0546875 1.79296875 3.875 4.1875 C4.79925781 5.35345703 4.79925781 5.35345703 5.7421875 6.54296875 C7 9 7 9 6.984375 11.59375 C5.07849734 16.25256206 0.40093639 18.02739094 -4 20 C-7.875 20.75 -7.875 20.75 -11 20 C-15.40808415 14.77990034 -16.12601445 10.67876602 -16 4 C-10.74743493 1.19048845 -6.01633927 -0.65335811 0 0 Z " fill="#0256FB" transform="translate(1054,118)"/>
<path d="M0 0 C1.47745228 0.983922 1.47745228 0.983922 3 3 C3.28839452 5.82622756 3.39161525 8.43077368 3.36076355 11.25724792 C3.36332682 12.10919009 3.3658901 12.96113226 3.36853105 13.83889085 C3.37348711 16.70422624 3.35694606 19.56903903 3.34057617 22.43432617 C3.33973029 24.48400358 3.34020427 26.53368189 3.34190369 28.58335876 C3.34276659 34.15746266 3.325093 39.731374 3.30418181 45.30543303 C3.28546422 51.12705883 3.28366846 56.94868873 3.28010559 62.77033997 C3.27077065 73.79881498 3.24613725 84.82720108 3.21605712 95.85563689 C3.18255818 108.40926407 3.16603845 120.96289542 3.15097082 133.51655614 C3.11958897 159.34442011 3.06680033 185.17220508 3 211 C2.34 211 1.68 211 1 211 C1.33 142.69 1.66 74.38 2 4 C-17.14 3.67 -36.28 3.34 -56 3 C-56 2.67 -56 2.34 -56 2 C-37.52 2 -19.04 2 0 2 C0 1.34 0 0.68 0 0 Z " fill="#D2AD00" transform="translate(764,95)"/>
<path d="M0 0 C7.41459942 -0.02312883 14.82919111 -0.04091785 22.24381924 -0.05181217 C25.68640348 -0.05703982 29.12896312 -0.06413531 32.5715332 -0.07543945 C36.52555043 -0.08834235 40.47955756 -0.09322918 44.43359375 -0.09765625 C46.29605995 -0.10539818 46.29605995 -0.10539818 48.19615173 -0.11329651 C49.33725906 -0.11337204 50.47836639 -0.11344757 51.65405273 -0.11352539 C52.664431 -0.115746 53.67480927 -0.11796661 54.71580505 -0.12025452 C57 0 57 0 58 1 C58.09822744 2.46805292 58.1279837 3.9407746 58.12939453 5.41210938 C58.13254669 6.34978149 58.13569885 7.28745361 58.13894653 8.25354004 C58.1369223 9.27330933 58.13489807 10.29307861 58.1328125 11.34375 C58.13376923 12.38317749 58.13472595 13.42260498 58.13571167 14.49353027 C58.13639363 16.69604554 58.13453827 18.89856279 58.13037109 21.10107422 C58.12502308 24.48539719 58.13031559 27.86958744 58.13671875 31.25390625 C58.13605797 33.38802113 58.13477681 35.52213592 58.1328125 37.65625 C58.13483673 38.67601929 58.13686096 39.69578857 58.13894653 40.74645996 C58.13421829 42.15296814 58.13421829 42.15296814 58.12939453 43.58789062 C58.12859894 44.41760376 58.12780334 45.24731689 58.12698364 46.10217285 C58 48 58 48 57 49 C55.22008076 49.09370624 53.43643261 49.11744271 51.65405273 49.11352539 C50.5129454 49.11344986 49.37183807 49.11337433 48.19615173 49.11329651 C46.9545076 49.10813522 45.71286346 49.10297394 44.43359375 49.09765625 C42.53795433 49.09553383 42.53795433 49.09553383 40.60401917 49.09336853 C37.23875111 49.08870582 33.8735501 49.0797148 30.50830078 49.06866455 C27.0765033 49.05844846 23.64469891 49.05387049 20.21289062 49.04882812 C13.47524176 49.0377738 6.73762475 49.0210171 0 49 C0 48.67 0 48.34 0 48 C18.48 48 36.96 48 56 48 C56 32.82 56 17.64 56 2 C37.52 2 19.04 2 0 2 C0 1.34 0 0.68 0 0 Z " fill="#725B00" transform="translate(576,138)"/>
<path d="M0 0 C68.805 0.495 68.805 0.495 139 1 C139 1.33 139 1.66 139 2 C94.45 2.33 49.9 2.66 4 3 C3.67 12.24 3.34 21.48 3 31 C2.01 31 1.02 31 0 31 C0 20.77 0 10.54 0 0 Z " fill="#AE9204" transform="translate(541,106)"/>
<path d="M0 0 C18.48 0 36.96 0 56 0 C56 13.86 56 27.72 56 42 C55.67 42 55.34 42 55 42 C55 28.8 55 15.6 55 2 C37.51 2 20.02 2 2 2 C2 6.62 2 11.24 2 16 C1.34 16 0.68 16 0 16 C0 10.72 0 5.44 0 0 Z " fill="#E2C101" transform="translate(576,140)"/>
<path d="M0 0 C17.49 0 34.98 0 53 0 C53 0.33 53 0.66 53 1 C47.73375405 2.06238918 42.61079287 2.19916032 37.26171875 2.28125 C35.87965996 2.30886414 35.87965996 2.30886414 34.46968079 2.33703613 C30.54329638 2.41547847 26.61675521 2.48380218 22.69018555 2.55224609 C19.8181056 2.60379079 16.94618091 2.66106747 14.07421875 2.71875 C13.17950363 2.73232544 12.28478851 2.74590088 11.36296082 2.7598877 C7.36041481 2.44429843 7.36041481 2.44429843 4 4 C3.76712992 5.68183948 3.58735834 7.3712416 3.4375 9.0625 C3.31181641 10.44115234 3.31181641 10.44115234 3.18359375 11.84765625 C3.12300781 12.55792969 3.06242188 13.26820313 3 14 C2.01 14 1.02 14 0 14 C0 9.38 0 4.76 0 0 Z " fill="#FEE700" transform="translate(578,142)"/>
<path d="M0 0 C0.66 0 1.32 0 2 0 C2 4.95 2 9.9 2 15 C16.19 14.67 30.38 14.34 45 14 C44.67 14.99 44.34 15.98 44 17 C29.48 17 14.96 17 0 17 C0 11.39 0 5.78 0 0 Z " fill="#C8A300" transform="translate(581,165)"/>
<path d="M0 0 C0 0.66 0 1.32 0 2 C-15.84 2 -31.68 2 -48 2 C-48 1.34 -48 0.68 -48 0 C-41.48568186 -0.16801189 -34.97120174 -0.32794171 -28.45654297 -0.48217773 C-26.23904904 -0.53564069 -24.02159938 -0.59097328 -21.80419922 -0.64819336 C-18.62216745 -0.72998452 -15.44003851 -0.8051129 -12.2578125 -0.87890625 C-10.76400558 -0.91945885 -10.76400558 -0.91945885 -9.24002075 -0.96083069 C-8.31921722 -0.98092697 -7.3984137 -1.00102325 -6.44970703 -1.02172852 C-5.23059128 -1.05170677 -5.23059128 -1.05170677 -3.98684692 -1.08229065 C-2 -1 -2 -1 0 0 Z " fill="#FFE600" transform="translate(631,183)"/>
<path d="M0 0 C2 1.3125 2 1.3125 4 3 C4 3.99 4 4.98 4 6 C-13.49 6 -30.98 6 -49 6 C-49 5.67 -49 5.34 -49 5 C-32.83 5 -16.66 5 0 5 C0 3.35 0 1.7 0 0 Z " fill="#F6CF00" transform="translate(760,91)"/>
<path d="M0 0 C0.99 1.32 1.98 2.64 3 4 C-26.205 3.505 -26.205 3.505 -56 3 C-56 2.67 -56 2.34 -56 2 C-37.52 2 -19.04 2 0 2 C0 1.34 0 0.68 0 0 Z " fill="#C8A300" transform="translate(764,95)"/>
<path d="M0 0 C2.97 0 5.94 0 9 0 C7.68 2.31 6.36 4.62 5 7 C3.29115995 5.37660195 1.62553283 3.70680947 0 2 C0 1.34 0 0.68 0 0 Z " fill="#7ED265" transform="translate(1884,0)"/>
<path d="M0 0 C0 0.99 0 1.98 0 3 C-3.7862749 6.69612549 -6.80333579 8.6389689 -12 10 C-8.42148591 5.22864787 -5.31427203 2.70923672 0 0 Z " fill="#5EB150" transform="translate(1697,163)"/>
<path d="M0 0 C0 0.99 0 1.98 0 3 C-3.7862749 6.69612549 -6.80333579 8.6389689 -12 10 C-8.42148591 5.22864787 -5.31427203 2.70923672 0 0 Z " fill="#5EBD76" transform="translate(1215,163)"/>
<path d="M0 0 C4.44044513 1.35680268 6.45164515 3.13353058 9 7 C10.25 10.3125 10.25 10.3125 11 13 C6.78185183 9.0299782 3.38772897 4.69159716 0 0 Z " fill="#7FA935" transform="translate(750,78)"/>
<path d="M0 0 C3.78080393 1.26026798 4.77295425 2.93546534 7.1875 6.0625 C7.90292969 6.98160156 8.61835937 7.90070313 9.35546875 8.84765625 C10.16951172 9.91306641 10.16951172 9.91306641 11 11 C10.67 11.66 10.34 12.32 10 13 C6.59176204 10.76701651 4.94670547 8.55485348 3 5 C2.443125 4.071875 1.88625 3.14375 1.3125 2.1875 C0.879375 1.465625 0.44625 0.74375 0 0 Z " fill="#88A82E" transform="translate(737,62)"/>
<path d="M0 0 C1.98 0 3.96 0 6 0 C5.34 1.65 4.68 3.3 4 5 C2.64567325 3.68799596 1.31266518 2.35368596 0 1 C0 0.67 0 0.34 0 0 Z " fill="#9BD571" transform="translate(1885,0)"/>
</svg>
